<svg width="20" height="20" viewBox="0 0 40 40" fill="none" xmlns="http://www.w3.org/2000/svg">
  <path d="M30.6667 20C30.6667 25.891 25.891 30.6667 20 30.6667C14.1091 30.6667 9.33337 25.891 9.33337 20C9.33337 14.1091 14.1091 9.33334 20 9.33334C25.891 9.33334 30.6667 14.1091 30.6667 20Z" fill="black"/>
  <path d="M20.6667 39.3333V34C20.6667 33.6318 20.3682 33.3333 20 33.3333C19.6319 33.3333 19.3334 33.6318 19.3334 34V39.3333C19.3334 39.7015 19.6319 40 20 40C20.3682 40 20.6667 39.7015 20.6667 39.3333Z" fill="black"/>
  <path d="M20 6.66667C20.3682 6.66667 20.6667 6.36816 20.6667 6V0.666667C20.6667 0.298503 20.3682 0 20 0C19.6319 0 19.3334 0.298503 19.3334 0.666667V6C19.3334 6.36816 19.6319 6.66667 20 6.66667Z" fill="black"/>
  <path d="M9.52855 10.4713C9.79027 10.7239 10.206 10.7204 10.4631 10.4632C10.7203 10.206 10.7239 9.79036 10.4713 9.52864L6.47126 5.52864C6.20954 5.27604 5.79385 5.27962 5.53669 5.53678C5.27953 5.79394 5.27594 6.20963 5.52855 6.47135L9.52855 10.4713Z" fill="black"/>
  <path d="M30.4713 29.5286C30.2095 29.276 29.7938 29.2796 29.5367 29.5368C29.2795 29.7939 29.2759 30.2096 29.5285 30.4713L33.5285 34.4713C33.7903 34.724 34.206 34.7204 34.4631 34.4632C34.7203 34.206 34.7239 33.7904 34.4713 33.5286L30.4713 29.5286Z" fill="black"/>
  <path d="M30.0001 10.6667C30.1769 10.6667 30.3465 10.5964 30.4715 10.4714L34.4715 6.47135C34.7241 6.20963 34.7205 5.79394 34.4633 5.53678C34.2062 5.27962 33.7905 5.27604 33.5288 5.52864L29.5287 9.52864C29.3383 9.7194 29.281 10.0062 29.3842 10.2552C29.4874 10.5042 29.7306 10.6667 30.0001 10.6667Z" fill="black"/>
  <path d="M39.3334 19.3333H34C33.6319 19.3333 33.3334 19.6318 33.3334 20C33.3334 20.3682 33.6319 20.6667 34 20.6667H39.3334C39.7015 20.6667 40 20.3682 40 20C40 19.6318 39.7015 19.3333 39.3334 19.3333Z" fill="black"/>
  <path d="M0.666667 20.6667H6C6.36816 20.6667 6.66667 20.3682 6.66667 20C6.66667 19.6318 6.36816 19.3333 6 19.3333H0.666667C0.298503 19.3333 0 19.6318 0 20C0 20.3682 0.298503 20.6667 0.666667 20.6667Z" fill="black"/>
  <path d="M6.47137 34.4713L10.4714 30.4713C10.724 30.2096 10.7204 29.7939 10.4632 29.5368C10.2061 29.2796 9.79038 29.276 9.52866 29.5286L5.52866 33.5286C5.35549 33.696 5.28583 33.944 5.34702 34.1771C5.4079 34.4102 5.58986 34.5921 5.82293 34.653C6.05601 34.7142 6.30405 34.6445 6.47137 34.4713Z" fill="black"/>
</svg>
